<svg id="Dean-Logo_2020.08_" data-name="Dean-Logo (2020.08)" xmlns="http://www.w3.org/2000/svg" width="161.3" height="48.352" viewBox="0 0 161.3 48.352">
  <g id="Group_1547" data-name="Group 1547" transform="translate(0 37.704)">
    <path id="Path_865" data-name="Path 865" d="M0,106.972v-.992H6.242v.992H3.7v9.15H2.539v-9.15Z" transform="translate(0 -105.729)" fill="#000006"/>
    <path id="Path_866" data-name="Path 866" d="M38.46,105.98h6.532v.992H39.6v3.177h5.347v1H39.6v3.986h5.347v.992H38.46Z" transform="translate(-24.686 -105.729)" fill="#000006"/>
    <path id="Path_867" data-name="Path 867" d="M88.248,107.428l-.9.616a4.8,4.8,0,0,0-1.784-1.307,5.7,5.7,0,0,0-2.288-.448,5.508,5.508,0,0,0-2.521.584,4.481,4.481,0,0,0-1.8,1.561,4.08,4.08,0,0,0,.788,5.3,5.737,5.737,0,0,0,7.607-.43l.9.609a5.7,5.7,0,0,1-2.124,1.5,7.32,7.32,0,0,1-2.847.526,6.279,6.279,0,0,1-4.717-1.769,5,5,0,0,1-1.45-3.61,4.752,4.752,0,0,1,1.755-3.743,6.48,6.48,0,0,1,4.4-1.522,7.086,7.086,0,0,1,2.879.562,5.436,5.436,0,0,1,2.106,1.576Z" transform="translate(-49.494 -105.286)" fill="#000006"/>
    <path id="Path_868" data-name="Path 868" d="M130.95,105.98h1.139v4.251h5.805V105.98h1.139v10.142h-1.139v-4.9h-5.805v4.9H130.95Z" transform="translate(-84.052 -105.729)" fill="#000006"/>
    <path id="Path_869" data-name="Path 869" d="M178.57,116.122V105.98h.247l7.589,7.764V105.98h1.121v10.142h-.254l-7.524-7.671v7.671Z" transform="translate(-114.618 -105.729)" fill="#000006"/>
    <path id="Path_870" data-name="Path 870" d="M232.294,106.265a5.14,5.14,0,0,0-2.4.587,4.49,4.49,0,0,0-1.769,1.579,4.033,4.033,0,0,0-.637,2.213A3.917,3.917,0,0,0,228.9,113.7a4.941,4.941,0,0,0,3.4,1.243,5.346,5.346,0,0,0,2.457-.573,4.347,4.347,0,0,0,1.758-1.565,4.015,4.015,0,0,0,.634-2.206,3.907,3.907,0,0,0-.634-2.181,4.491,4.491,0,0,0-1.78-1.561,5.3,5.3,0,0,0-2.435-.587Zm-.054-.985a6.315,6.315,0,0,1,4.333,1.536,4.968,4.968,0,0,1,0,7.557,6.147,6.147,0,0,1-4.244,1.551,6.218,6.218,0,0,1-4.28-1.544,4.8,4.8,0,0,1-1.744-3.732,4.95,4.95,0,0,1,.8-2.711,5.5,5.5,0,0,1,2.167-1.952,6.421,6.421,0,0,1,2.969-.706Z" transform="translate(-145.261 -105.28)" fill="#000006"/>
    <path id="Path_871" data-name="Path 871" d="M282.62,105.98h1.139v9.165h4.384v.978H282.62Z" transform="translate(-181.404 -105.729)" fill="#000006"/>
    <path id="Path_872" data-name="Path 872" d="M324.061,106.265a5.151,5.151,0,0,0-2.4.587,4.5,4.5,0,0,0-1.766,1.579,4,4,0,0,0-.637,2.213,3.917,3.917,0,0,0,1.407,3.051,4.948,4.948,0,0,0,3.4,1.243,5.335,5.335,0,0,0,2.457-.573,4.381,4.381,0,0,0,1.762-1.565,4.012,4.012,0,0,0,.63-2.206,3.933,3.933,0,0,0-.63-2.181,4.516,4.516,0,0,0-1.78-1.561,5.328,5.328,0,0,0-2.442-.587Zm-.05-.985a6.315,6.315,0,0,1,4.333,1.536,4.968,4.968,0,0,1,0,7.557,6.141,6.141,0,0,1-4.244,1.551,6.218,6.218,0,0,1-4.28-1.544,4.816,4.816,0,0,1-1.744-3.732,4.95,4.95,0,0,1,.8-2.711,5.5,5.5,0,0,1,2.167-1.952,6.421,6.421,0,0,1,2.969-.706Z" transform="translate(-204.165 -105.28)" fill="#000006"/>
    <path id="Path_873" data-name="Path 873" d="M384.5,107.242l-.885.745a6.793,6.793,0,0,0-2.088-1.264,6.223,6.223,0,0,0-2.21-.433,5.812,5.812,0,0,0-2.553.587,4.539,4.539,0,0,0-1.877,1.587,3.772,3.772,0,0,0-.666,2.12,3.831,3.831,0,0,0,.691,2.174,4.729,4.729,0,0,0,1.905,1.619,6,6,0,0,0,2.664.587,4.928,4.928,0,0,0,2.973-.881,3.386,3.386,0,0,0,1.44-2.285h-3.635v-.978h4.914a4.788,4.788,0,0,1-1.569,3.732,6.017,6.017,0,0,1-4.158,1.382,6.616,6.616,0,0,1-5.007-1.916,4.813,4.813,0,0,1-.605-6.088,5.513,5.513,0,0,1,2.231-1.941,7.167,7.167,0,0,1,3.205-.7,7.866,7.866,0,0,1,2.725.466,8.04,8.04,0,0,1,2.5,1.486Z" transform="translate(-239.429 -105.286)" fill="#000006"/>
    <path id="Path_874" data-name="Path 874" d="M426.91,105.98h1.314l2.912,4.194L434,105.98h1.311l-3.61,5.3v4.846h-1.117v-4.846Z" transform="translate(-274.019 -105.729)" fill="#000006"/>
  </g>
  <g id="Group_1550" data-name="Group 1550" transform="translate(0)">
    <path id="Path_875" data-name="Path 875" d="M26.226,5.877c3.793,0,6.278.623,6.278,8.975v3.073c0,8.194-2.743,8.81-6.93,8.81H6.557V5.881c2.253,0,19.669,0,19.669,0ZM1.279,0A1.279,1.279,0,0,0,0,1.279V31.326A1.279,1.279,0,0,0,1.279,32.6H25.044c11.783,0,14.017-5.73,14.017-16.3,0-12.492-3.248-16.3-13.9-16.3Z" transform="translate(0)" fill="#003c5b"/>
    <path id="Path_876" data-name="Path 876" d="M374.787,0a1.918,1.918,0,0,0-1.916,1.916V24.647C367.119,19.035,348.424.809,348.424.809A3.074,3.074,0,0,0,346.44,0h-4.684a1.918,1.918,0,0,0-1.916,1.916V30.689a1.921,1.921,0,0,0,1.916,1.916h2.725a1.918,1.918,0,0,0,1.916-1.916V7.958L370.844,31.8a3.083,3.083,0,0,0,1.988.809h4.684a1.918,1.918,0,0,0,1.916-1.916V1.916A1.918,1.918,0,0,0,377.516,0Z" transform="translate(-218.132)" fill="#898a8d"/>
    <g id="Group_1548" data-name="Group 1548" transform="translate(76.673)">
      <path id="Path_877" data-name="Path 877" d="M233.314,0a2.494,2.494,0,0,0-2.063,1.185L214.34,30.13a1.6,1.6,0,0,0,1.418,2.475h3.255a2.492,2.492,0,0,0,2.063-1.193s12.015-20.7,14.093-24.278c1.311,2.256,14.093,24.278,14.093,24.278a2.488,2.488,0,0,0,2.063,1.189h3.255A1.6,1.6,0,0,0,256,30.126L239.084,1.185A2.5,2.5,0,0,0,237.021,0Z" transform="translate(-214.09)" fill="#898a8d"/>
      <path id="Path_878" data-name="Path 878" d="M269.877,61.136a.639.639,0,0,1-.638.637h-6.482a.639.639,0,0,1-.637-.637V54.657a.639.639,0,0,1,.637-.637h6.482a.639.639,0,0,1,.638.637v6.479Z" transform="translate(-244.919 -34.674)" fill="#003a5d"/>
    </g>
    <g id="Group_1549" data-name="Group 1549" transform="translate(41.938)">
      <path id="Path_879" data-name="Path 879" d="M117.1,5.709h31.856V0H117.1Z" transform="translate(-117.1)" fill="#898a8d"/>
      <path id="Path_880" data-name="Path 880" d="M117.1,43.259h31.856V37.55H117.1Z" transform="translate(-117.1 -24.102)" fill="#898a8d"/>
      <path id="Path_881" data-name="Path 881" d="M117.1,80.809h31.856V75.1H117.1Z" transform="translate(-117.1 -48.204)" fill="#898a8d"/>
    </g>
  </g>
</svg>
